<?xml version="1.0" standalone="no"?>
<!DOCTYPE svg PUBLIC "-//W3C//DTD SVG 20010904//EN"
 "http://www.w3.org/TR/2001/REC-SVG-20010904/DTD/svg10.dtd">
<svg version="1.0" xmlns="http://www.w3.org/2000/svg"
 width="276.000000pt" height="88.000000pt" viewBox="0 0 276.000000 88.000000"
 preserveAspectRatio="xMidYMid meet">
<metadata>
Created by potrace 1.16, written by Peter Selinger 2001-2019
</metadata>
<g transform="translate(0.000000,88.000000) scale(0.100000,-0.100000)"
fill="#000000" stroke="none">
<path d="M770 530 c0 -33 -2 -60 -5 -60 -2 0 -15 5 -29 11 -82 38 -148 -91
-98 -191 21 -44 60 -59 105 -42 21 8 33 9 35 2 2 -5 17 -10 33 -10 l29 0 0
108 c0 59 -3 137 -7 175 -6 66 -6 67 -34 67 -29 0 -29 -1 -29 -60z"/>
<path d="M244 405 l-61 -165 33 0 c29 0 36 5 49 36 14 35 15 35 72 32 55 -3
58 -4 67 -35 8 -29 13 -33 42 -33 21 0 34 5 33 13 0 6 -26 80 -58 162 -54 144
-58 150 -86 153 l-30 3 -61 -166z"/>
<path d="M1250 520 c0 -23 -4 -30 -20 -30 -15 0 -20 -7 -20 -25 0 -18 5 -25
20 -25 18 0 20 -7 20 -80 0 -91 17 -120 70 -120 25 0 30 4 30 24 0 15 -7 26
-20 29 -18 5 -20 14 -20 76 0 64 2 71 20 71 15 0 20 7 20 25 0 18 -5 25 -20
25 -16 0 -20 7 -20 30 0 27 -3 30 -30 30 -27 0 -30 -3 -30 -30z"/>
<path d="M1007 483 c-4 -3 -7 -60 -7 -125 l0 -118 35 0 35 0 0 125 0 125 -28
0 c-16 0 -32 -3 -35 -7z"/>
<path d="M1524 366 c41 -113 43 -126 30 -145 -8 -12 -22 -21 -30 -21 -8 0 -14
-10 -14 -25 0 -27 25 -34 60 -15 26 14 33 28 90 190 l49 140 -33 0 c-33 0 -34
-1 -55 -70 -12 -38 -24 -70 -26 -70 -2 0 -14 32 -26 70 -21 69 -22 70 -55 70
l-34 0 44 -124z"/>
<path d="M1900 483 c-24 -9 -50 -35 -50 -50 0 -15 56 -18 65 -3 10 16 52 12
59 -6 11 -28 7 -34 -23 -34 -41 0 -90 -19 -101 -40 -36 -67 41 -137 110 -100
13 7 21 7 25 0 3 -5 19 -10 34 -10 l27 0 -3 88 c-2 48 -6 97 -9 110 -7 37 -86
63 -134 45z"/>
</g>
</svg>
